<?xml version="1.0" encoding="UTF-8" standalone="no"?>
<!-- Created with Inkscape (http://www.inkscape.org/) -->

<svg
   xmlns:dc="http://purl.org/dc/elements/1.1/"
   xmlns:cc="http://creativecommons.org/ns#"
   xmlns:rdf="http://www.w3.org/1999/02/22-rdf-syntax-ns#"
   xmlns:svg="http://www.w3.org/2000/svg"
   xmlns="http://www.w3.org/2000/svg"
   xmlns:sodipodi="http://sodipodi.sourceforge.net/DTD/sodipodi-0.dtd"
   xmlns:inkscape="http://www.inkscape.org/namespaces/inkscape"
   width="210mm"
   height="148mm"
   viewBox="0 0 210 148"
   version="1.1"
   id="svg1514"
   inkscape:version="0.92.3 (2405546, 2018-03-11)"
   sodipodi:docname="Title Slide.svg">
  <defs
     id="defs1508">
    <filter
       style="color-interpolation-filters:sRGB"
       inkscape:label="Color Shift"
       id="filter1464">
      <feColorMatrix
         type="hueRotate"
         values="171"
         result="color1"
         id="feColorMatrix1460" />
      <feColorMatrix
         type="saturate"
         values="0.5"
         result="color2"
         id="feColorMatrix1462" />
    </filter>
    <filter
       style="color-interpolation-filters:sRGB"
       inkscape:label="Color Shift"
       id="filter1470">
      <feColorMatrix
         type="hueRotate"
         values="171"
         result="color1"
         id="feColorMatrix1466" />
      <feColorMatrix
         type="saturate"
         values="0.5"
         result="color2"
         id="feColorMatrix1468" />
    </filter>
    <filter
       style="color-interpolation-filters:sRGB"
       inkscape:label="Color Shift"
       id="filter1476">
      <feColorMatrix
         type="hueRotate"
         values="171"
         result="color1"
         id="feColorMatrix1472" />
      <feColorMatrix
         type="saturate"
         values="0.5"
         result="color2"
         id="feColorMatrix1474" />
    </filter>
    <filter
       style="color-interpolation-filters:sRGB"
       inkscape:label="Color Shift"
       id="filter1482">
      <feColorMatrix
         type="hueRotate"
         values="171"
         result="color1"
         id="feColorMatrix1478" />
      <feColorMatrix
         type="saturate"
         values="0.5"
         result="color2"
         id="feColorMatrix1480" />
    </filter>
    <filter
       style="color-interpolation-filters:sRGB"
       inkscape:label="Color Shift"
       id="filter1488">
      <feColorMatrix
         type="hueRotate"
         values="171"
         result="color1"
         id="feColorMatrix1484" />
      <feColorMatrix
         type="saturate"
         values="0.5"
         result="color2"
         id="feColorMatrix1486" />
    </filter>
    <filter
       style="color-interpolation-filters:sRGB"
       inkscape:label="Color Shift"
       id="filter1494">
      <feColorMatrix
         type="hueRotate"
         values="171"
         result="color1"
         id="feColorMatrix1490" />
      <feColorMatrix
         type="saturate"
         values="0.5"
         result="color2"
         id="feColorMatrix1492" />
    </filter>
    <filter
       style="color-interpolation-filters:sRGB"
       inkscape:label="Color Shift"
       id="filter1500">
      <feColorMatrix
         type="hueRotate"
         values="171"
         result="color1"
         id="feColorMatrix1496" />
      <feColorMatrix
         type="saturate"
         values="0.5"
         result="color2"
         id="feColorMatrix1498" />
    </filter>
    <filter
       style="color-interpolation-filters:sRGB"
       inkscape:label="Color Shift"
       id="filter1506">
      <feColorMatrix
         type="hueRotate"
         values="171"
         result="color1"
         id="feColorMatrix1502" />
      <feColorMatrix
         type="saturate"
         values="0.5"
         result="color2"
         id="feColorMatrix1504" />
    </filter>
  </defs>
  <sodipodi:namedview
     id="base"
     pagecolor="#ffffff"
     bordercolor="#666666"
     borderopacity="1.0"
     inkscape:pageopacity="0.0"
     inkscape:pageshadow="2"
     inkscape:zoom="1.2519824"
     inkscape:cx="626.27367"
     inkscape:cy="272.85714"
     inkscape:document-units="mm"
     inkscape:current-layer="layer1"
     showgrid="false"
     inkscape:window-width="1920"
     inkscape:window-height="1021"
     inkscape:window-x="0"
     inkscape:window-y="0"
     inkscape:window-maximized="1" />
  <metadata
     id="metadata1511">
    <rdf:RDF>
      <cc:Work
         rdf:about="">
        <dc:format>image/svg+xml</dc:format>
        <dc:type
           rdf:resource="http://purl.org/dc/dcmitype/StillImage" />
        <dc:title />
      </cc:Work>
    </rdf:RDF>
  </metadata>
  <g
     inkscape:label="Layer 1"
     inkscape:groupmode="layer"
     id="layer1"
     transform="translate(0,-149)">
    <path
       d="m 415.60156,175.67187 c 0,8.27735 -6.71875,15 -15,15 -26.00781,0 -50.48828,10.14063 -68.92969,28.55079 -18.1289,18.16015 -28.53906,43.27734 -28.53906,68.89843 v 43.46875 c 0,21.57032 5.48047,43.03125 15.84766,62.07032 13.73047,25.23046 30.52344,55.99218 30.52344,55.99218 h -187 c 0,0 16.78906,-30.78125 30.61718,-56.01953 10.28907,-18.91015 15.75,-40.37109 15.75,-62.04297 v -43.46875 c 0,-26.07031 -10.14062,-50.53906 -28.53906,-68.89843 -18.12109,-18.15235 -43.19922,-28.55079 -68.85156,-28.55079 -8.27734,0 -15.039064,-6.72265 -15.039064,-15 0,-8.28906 6.679684,-15 14.960934,-15 h 289.19922 c 8.28125,0 15,6.71094 15,15 z m 0,0"
       id="path2"
       style="fill:#aecee4;fill-opacity:1"
       inkscape:connector-curvature="0"
       transform="matrix(0.10594913,0,0,0.10594913,13.663646,207.38545)" />
    <path
       d="M 400.60156,160.67187 H 256.33203 v 288.98047 h 93.17188 c 0,0 -16.79297,-30.76172 -30.52344,-55.99218 -10.36719,-19.03907 -15.84766,-40.5 -15.84766,-62.07032 v -43.46875 c 0,-25.62109 10.41016,-50.73828 28.53906,-68.89843 18.44141,-18.41016 42.92188,-28.55078 68.92969,-28.55078 8.28125,0 15,-6.72266 15,-15 0,-8.28907 -6.71875,-15 -15,-15.00001 z m 0,0"
       id="path4"
       style="fill:#a2c0dd;fill-opacity:1;"
       inkscape:connector-curvature="0"
       transform="matrix(0.10594913,0,0,0.10594913,13.663646,207.38545)" />
    <path
       style="fill:#e0eef5;fill-opacity:1"
       inkscape:connector-curvature="0"
       id="path6"
       d="M 336.33594,335.26953 H 175.66797 c -8.28125,0 -15,-6.71875 -15,-15 0,-8.28516 6.71875,-15 15,-15 h 160.66797 c 8.28125,0 15,6.71484 15,15 0,8.28125 -6.71875,15 -15,15 z m 0,0"
       transform="matrix(0.10594913,0,0,0.10594913,13.663646,207.38545)" />
    <path
       style="fill:#e0eef5;fill-opacity:1"
       inkscape:connector-curvature="0"
       id="path8"
       d="m 512.00391,496.99219 c 0,8.28906 -6.72266,15.00781 -15,15.00781 H 15.003906 C 6.722656,512 0.00390625,505.28125 0.00390625,497 v -0.008 c 0,-3.98047 1.57812475,-7.79297 4.38671875,-10.60157 11.25,-11.25 26.832031,-17.69921 42.742187,-17.69921 10.167969,0 20.199219,2.6289 29.050782,7.46875 1.429687,-1.89844 2.96875,-3.94922 4.589844,-6.10938 21.777342,-29.10937 60.648442,-38.32812 92.750002,-23.53125 47.59765,-39.80859 117.4375,-39.80859 164.98047,0.0117 32.08984,-14.74219 70.97656,-5.53906 92.80859,23.53125 1.60937,2.14844 3.14844,4.1875 4.55859,6.07031 8.83985,-4.82031 18.85157,-7.4414 29,-7.4414 15.91016,0 31.49219,6.44922 42.74219,17.69922 2.8086,2.80859 4.39063,6.62109 4.39063,10.60156 z m 0,0"
       transform="matrix(0.10594913,0,0,0.10594913,13.663646,207.38545)" />
    <path
       style="fill:#e0eef5;fill-opacity:1"
       inkscape:connector-curvature="0"
       id="path10"
       d="m 448.80078,206.73437 c -15.75391,0 -30.76953,-5.85156 -42.3125,-16.28125 -1.93359,0.14454 -3.89062,0.21485 -5.88672,0.21485 -16.6289,0 -32.48828,-5.10156 -45.76562,-14.5625 -15.1211,9.45312 -32.70313,14.5625 -50.63672,14.5625 -17.17188,0 -33.63672,-4.49219 -48.19922,-13.07031 -14.5625,8.57812 -31.02734,13.07031 -48.19922,13.07031 -17.95703,0 -35.52734,-5.10938 -50.59766,-14.5625 -13.32421,9.45703 -29.19921,14.5625 -45.80078,14.5625 -1.96484,0 -3.91797,-0.0703 -5.85547,-0.21485 C 94.054688,200.88281 79.03125,206.73437 63.199219,206.73437 28.351562,206.73437 0,178.38281 0,143.53516 0,118.71484 14.25,96.691406 36.21875,86.382812 40.964844,72.191406 49.726562,59.453125 61.425781,49.921875 75.503906,38.449219 93.25,32.136719 111.40234,32.136719 c 7.66407,0 15.14453,1.066406 22.35547,3.1875 C 151.76562,13.007812 178.64062,0 207.80078,0 224.97266,0 241.44141,4.492188 256.00391,13.074219 270.5625,4.492188 287.03125,0 304.20312,0 c 29.20313,0 56.10547,13.003906 74.11719,35.320312 7.19922,-2.117187 14.65235,-3.1875 22.28125,-3.1875 18.1836,0 35.95313,6.316407 50.03906,17.78125 11.71094,9.535157 20.48047,22.277344 25.22657,36.480469 21.91797,10.320313 36.13672,32.335939 36.13672,57.140629 0,34.84765 -28.35547,63.19921 -63.20313,63.19921 z m 0,0"
       transform="matrix(0.10594913,0,0,0.10594913,13.663646,207.38545)" />
    <path
       d="m 512.00391,496.99219 c 0,8.28906 -6.72266,15.00781 -15,15.00781 H 256.33203 v -95.33984 c 29.25,0.0703 58.48047,10.03125 82.17188,29.87109 32.08984,-14.74219 70.97656,-5.53906 92.80859,23.53125 1.60937,2.14844 3.14844,4.1875 4.55859,6.07031 8.83985,-4.82031 18.85157,-7.4414 29,-7.4414 15.91016,0 31.49219,6.44922 42.74219,17.69921 2.8086,2.8086 4.39063,6.6211 4.39063,10.60157 z m 0,0"
       id="path14"
       style="fill:#a8cfe4;fill-opacity:1"
       inkscape:connector-curvature="0"
       transform="matrix(0.10594913,0,0,0.10594913,13.663646,207.38545)" />
    <path
       d="m 475.87109,86.390625 c -4.75,-14.199219 -13.51953,-26.941406 -25.23047,-36.46875 -14.08984,-11.472656 -31.85937,-17.789063 -50.03906,-17.789063 -7.6289,0 -15.07812,1.066407 -22.28125,3.1875 C 360.3125,13 333.41016,0 304.20312,0 287.16016,0 270.8125,4.421875 256.33203,12.882812 V 177.78125 c 14.48047,8.46875 30.82813,12.89062 47.87109,12.89062 17.92969,0 35.50782,-5.10937 50.62891,-14.57031 13.28125,9.46094 29.14063,14.57031 45.76953,14.57031 2,0 3.94922,-0.0703 5.89063,-0.22265 11.53906,10.43359 26.55078,16.28125 42.30859,16.28125 34.85156,0 63.20313,-28.34766 63.20313,-63.19922 0,-24.80078 -14.22266,-46.820312 -36.13282,-57.140625 z m 0,0"
       id="path16"
       style="fill:#aecee4;fill-opacity:1;"
       inkscape:connector-curvature="0"
       transform="matrix(0.10594913,0,0,0.10594913,13.663646,207.38545)" />
    <path
       d="m 256.33203,305.26953 v 30 h 80.00391 c 8.28125,0 15,-6.71875 15,-15 0,-8.28516 -6.71875,-15 -15,-15 z m 0,0"
       id="path18"
       style="fill:#a8cfe4;fill-opacity:1"
       inkscape:connector-curvature="0"
       transform="matrix(0.10594913,0,0,0.10594913,13.663646,207.38545)" />
    <text
       xml:space="preserve"
       style="color:#000000;font-style:normal;font-variant:normal;font-weight:500;font-stretch:normal;font-size:11.28888893px;line-height:125%;font-family:'Raleway Medium';-inkscape-font-specification:'Raleway Medium, Medium';font-variant-ligatures:normal;font-variant-caps:normal;font-variant-numeric:normal;font-feature-settings:normal;text-indent:0;text-align:center;text-decoration:none;text-decoration-line:none;text-decoration-style:solid;text-decoration-color:#000000;letter-spacing:0px;word-spacing:0px;text-transform:none;writing-mode:lr-tb;direction:ltr;baseline-shift:baseline;text-anchor:middle;white-space:normal;clip-rule:nonzero;display:inline;overflow:visible;visibility:visible;opacity:1;isolation:auto;mix-blend-mode:normal;color-interpolation:sRGB;color-interpolation-filters:linearRGB;solid-color:#000000;solid-opacity:1;fill:#000000;fill-opacity:1;fill-rule:nonzero;stroke:none;stroke-width:0.33072916px;stroke-linecap:butt;stroke-linejoin:miter;stroke-miterlimit:4;stroke-dasharray:none;stroke-dashoffset:0;stroke-opacity:1;color-rendering:auto;image-rendering:auto;shape-rendering:auto;text-rendering:auto;enable-background:accumulate"
       x="143.04977"
       y="195.34953"
       id="text2182"><tspan
         sodipodi:role="line"
         id="tspan2180"
         x="143.04977"
         y="195.34953"
         style="font-style:normal;font-variant:normal;font-weight:500;font-stretch:normal;font-size:11.28888893px;font-family:'Raleway Medium';-inkscape-font-specification:'Raleway Medium, Medium';font-variant-ligatures:normal;font-variant-caps:normal;font-variant-numeric:normal;font-feature-settings:normal;text-align:center;writing-mode:lr-tb;text-anchor:middle;stroke-width:0.33072916px">Blue Smoke Team</tspan><tspan
         sodipodi:role="line"
         x="143.04977"
         y="209.46065"
         style="font-style:normal;font-variant:normal;font-weight:500;font-stretch:normal;font-size:11.28888893px;font-family:'Raleway Medium';-inkscape-font-specification:'Raleway Medium, Medium';font-variant-ligatures:normal;font-variant-caps:normal;font-variant-numeric:normal;font-feature-settings:normal;text-align:center;writing-mode:lr-tb;text-anchor:middle;stroke-width:0.33072916px"
         id="tspan2184">Hardware Project</tspan></text>
    <text
       xml:space="preserve"
       style="color:#000000;font-style:normal;font-variant:normal;font-weight:500;font-stretch:normal;font-size:5.64444447px;line-height:125%;font-family:'Raleway Medium';-inkscape-font-specification:'Raleway Medium, Medium';font-variant-ligatures:normal;font-variant-caps:normal;font-variant-numeric:normal;font-feature-settings:normal;text-indent:0;text-align:center;text-decoration:none;text-decoration-line:none;text-decoration-style:solid;text-decoration-color:#000000;letter-spacing:0px;word-spacing:0px;text-transform:none;writing-mode:lr-tb;direction:ltr;baseline-shift:baseline;text-anchor:middle;white-space:normal;clip-rule:nonzero;display:inline;overflow:visible;visibility:visible;opacity:1;isolation:auto;mix-blend-mode:normal;color-interpolation:sRGB;color-interpolation-filters:linearRGB;solid-color:#000000;solid-opacity:1;fill:#999999;fill-opacity:1;fill-rule:nonzero;stroke:none;stroke-width:0.33072916px;stroke-linecap:butt;stroke-linejoin:miter;stroke-miterlimit:4;stroke-dasharray:none;stroke-dashoffset:0;stroke-opacity:1;color-rendering:auto;image-rendering:auto;shape-rendering:auto;text-rendering:auto;enable-background:accumulate"
       x="143.10393"
       y="219.76099"
       id="text2188"><tspan
         sodipodi:role="line"
         id="tspan4560"
         x="143.10393"
         y="219.76099">EE463 Fall 2019</tspan><tspan
         sodipodi:role="line"
         id="tspan4562"
         x="143.10393"
         y="226.81654"></tspan><tspan
         sodipodi:role="line"
         id="tspan4564"
         x="143.10393"
         y="233.8721">Paul Brown</tspan><tspan
         sodipodi:role="line"
         id="tspan4566"
         x="143.10393"
         y="240.92766">İbrahim Duru</tspan><tspan
         sodipodi:role="line"
         id="tspan4568"
         x="143.10393"
         y="247.98322">Mustafa Şahin</tspan></text>
    <text
       xml:space="preserve"
       style="color:#000000;font-style:normal;font-variant:normal;font-weight:normal;font-stretch:normal;font-size:5.64444447px;line-height:125%;font-family:Arial;-inkscape-font-specification:'Arial, Normal';font-variant-ligatures:normal;font-variant-caps:normal;font-variant-numeric:normal;font-feature-settings:normal;text-indent:0;text-align:center;text-decoration:none;text-decoration-line:none;text-decoration-style:solid;text-decoration-color:#000000;letter-spacing:0px;word-spacing:0px;text-transform:none;writing-mode:lr-tb;direction:ltr;baseline-shift:baseline;text-anchor:middle;white-space:normal;clip-rule:nonzero;display:inline;overflow:visible;visibility:visible;opacity:1;isolation:auto;mix-blend-mode:normal;color-interpolation:sRGB;color-interpolation-filters:linearRGB;solid-color:#000000;solid-opacity:1;fill:#588abd;fill-opacity:1;fill-rule:nonzero;stroke:none;stroke-width:0.33072916px;stroke-linecap:butt;stroke-linejoin:miter;stroke-miterlimit:4;stroke-dasharray:none;stroke-dashoffset:0;stroke-opacity:1;color-rendering:auto;image-rendering:auto;shape-rendering:auto;text-rendering:auto;enable-background:accumulate;"
       x="142.97609"
       y="270.37222"
       id="text2196"><tspan
         sodipodi:role="line"
         id="tspan2194"
         x="142.97609"
         y="270.37222"
         style="font-style:normal;font-variant:normal;font-weight:normal;font-stretch:normal;font-size:5.64444447px;font-family:Arial;-inkscape-font-specification:'Arial, Normal';font-variant-ligatures:normal;font-variant-caps:normal;font-variant-numeric:normal;font-feature-settings:normal;text-align:center;writing-mode:lr-tb;text-anchor:middle;fill:#588abd;fill-opacity:1;stroke-width:0.33072916px;">11 December 2019</tspan></text>
  </g>
</svg>
